<?xml version="1.0" encoding="utf-8"?>
<svg version="1.1" xmlns="http://www.w3.org/2000/svg" xmlns:xlink="http://www.w3.org/1999/xlink" x="0px" y="0px"
	 viewBox="0 0 348.1 340.5" style="enable-background:new 0 0 348.1 340.5;" xml:space="preserve">
<style type="text/css">
	.st0{fill:#00A5F9;}
	.st1{fill:#FFFFFF;}
</style>
<g id="circle">
	<circle class="st0" cx="174" cy="170.3" r="161"/>
</g>
<g id="t-sign">
	<path class="st1" d="M73.6,182.4c-5.6-2.2-5.3-9.5,0.2-11.8c0,0,64.1-28.2,104.5-44.6c28.9-11.7,36.7-15.1,49-20.1
		c16-6.4,22.4-3.3,20.7,12.4c-1.6,14.6-3,24.5-8.2,60.3c-3.8,26.3-10.4,60.7-10.4,60.7c-1.8,11.8-11.9,15.7-22.4,10.1l-57.3-39.2
		c-3.7-2.6-3-8.4-0.4-11l55.1-53.6c3-2.8-0.6-8.1-4.4-5.6l-69.2,46.2c-13.9,9.4-24.4,8.1-44,0.9L73.6,182.4z"/>
</g>
</svg>
